<svg xmlns="http://www.w3.org/2000/svg" width="900" height="900" viewBox="0 0 900 900"><circle cx="564.4" cy="2.5" r="0.66" fill="#eaf0ff" opacity="0.99"/><circle cx="253.0" cy="551.6" r="0.76" fill="#eaf0ff" opacity="0.63"/><circle cx="409.7" cy="439.9" r="0.47" fill="#eaf0ff" opacity="0.61"/><circle cx="139.0" cy="440.2" r="0.43" fill="#eaf0ff" opacity="0.61"/><circle cx="257.3" cy="171.8" r="0.42" fill="#eaf0ff" opacity="0.63"/><circle cx="718.8" cy="265.4" r="0.50" fill="#eaf0ff" opacity="0.78"/><circle cx="682.6" cy="173.5" r="0.76" fill="#eaf0ff" opacity="0.65"/><circle cx="895.1" cy="215.4" r="0.78" fill="#eaf0ff" opacity="0.45"/><circle cx="371.9" cy="224.3" r="0.48" fill="#eaf0ff" opacity="0.82"/><circle cx="114.5" cy="238.2" r="0.42" fill="#eaf0ff" opacity="0.75"/><circle cx="214.6" cy="890.4" r="0.76" fill="#eaf0ff" opacity="0.61"/><circle cx="609.5" cy="857.4" r="0.86" fill="#eaf0ff" opacity="0.80"/><circle cx="751.0" cy="840.5" r="0.46" fill="#eaf0ff" opacity="0.38"/><circle cx="265.0" cy="793.1" r="0.66" fill="#eaf0ff" opacity="0.96"/><circle cx="149.6" cy="609.1" r="0.87" fill="#eaf0ff" opacity="0.44"/><circle cx="146.7" cy="349.5" r="0.46" fill="#eaf0ff" opacity="0.61"/><circle cx="591.8" cy="458.2" r="0.67" fill="#eaf0ff" opacity="0.40"/><circle cx="768.8" cy="245.5" r="0.48" fill="#eaf0ff" opacity="0.55"/><circle cx="260.9" cy="129.4" r="0.73" fill="#eaf0ff" opacity="0.71"/><circle cx="108.1" cy="127.2" r="0.43" fill="#eaf0ff" opacity="0.55"/><circle cx="586.3" cy="105.2" r="0.65" fill="#eaf0ff" opacity="0.69"/><circle cx="713.0" cy="227.1" r="0.90" fill="#eaf0ff" opacity="0.97"/><circle cx="3.3" cy="164.7" r="0.41" fill="#eaf0ff" opacity="0.99"/><circle cx="648.6" cy="778.9" r="0.45" fill="#eaf0ff" opacity="0.51"/><circle cx="715.7" cy="712.6" r="0.51" fill="#eaf0ff" opacity="0.41"/><circle cx="367.8" cy="488.3" r="0.54" fill="#eaf0ff" opacity="0.92"/><circle cx="818.2" cy="775.6" r="0.72" fill="#eaf0ff" opacity="0.78"/><circle cx="345.3" cy="276.8" r="0.50" fill="#eaf0ff" opacity="0.52"/><circle cx="869.6" cy="143.9" r="0.56" fill="#eaf0ff" opacity="0.40"/><circle cx="705.3" cy="348.4" r="0.52" fill="#eaf0ff" opacity="0.45"/><circle cx="277.2" cy="803.2" r="0.66" fill="#eaf0ff" opacity="0.63"/><circle cx="310.4" cy="220.7" r="0.67" fill="#eaf0ff" opacity="0.85"/><circle cx="45.5" cy="187.8" r="0.72" fill="#eaf0ff" opacity="0.77"/><circle cx="293.7" cy="386.3" r="0.84" fill="#eaf0ff" opacity="0.77"/><circle cx="319.1" cy="541.2" r="0.41" fill="#eaf0ff" opacity="0.95"/><circle cx="511.2" cy="578.3" r="0.46" fill="#eaf0ff" opacity="0.40"/><circle cx="127.3" cy="639.5" r="0.54" fill="#eaf0ff" opacity="0.77"/><circle cx="491.0" cy="833.0" r="0.44" fill="#eaf0ff" opacity="0.42"/><circle cx="612.8" cy="40.9" r="0.66" fill="#eaf0ff" opacity="0.60"/><circle cx="236.7" cy="75.2" r="0.90" fill="#eaf0ff" opacity="0.99"/><circle cx="774.7" cy="101.1" r="0.60" fill="#eaf0ff" opacity="0.74"/><circle cx="346.1" cy="641.3" r="0.47" fill="#eaf0ff" opacity="0.53"/><circle cx="556.9" cy="487.1" r="0.42" fill="#eaf0ff" opacity="0.46"/><circle cx="213.6" cy="140.0" r="0.72" fill="#eaf0ff" opacity="0.75"/><circle cx="60.6" cy="28.1" r="0.60" fill="#eaf0ff" opacity="0.79"/><circle cx="718.6" cy="580.3" r="0.74" fill="#eaf0ff" opacity="0.97"/><circle cx="780.8" cy="827.5" r="0.41" fill="#eaf0ff" opacity="0.89"/><circle cx="508.1" cy="337.3" r="0.45" fill="#eaf0ff" opacity="0.40"/><circle cx="338.1" cy="13.4" r="0.65" fill="#eaf0ff" opacity="0.71"/><circle cx="775.0" cy="447.2" r="0.78" fill="#eaf0ff" opacity="0.39"/><circle cx="661.8" cy="183.1" r="0.84" fill="#eaf0ff" opacity="0.86"/><circle cx="165.4" cy="632.2" r="0.42" fill="#eaf0ff" opacity="0.87"/><circle cx="302.9" cy="819.5" r="0.83" fill="#eaf0ff" opacity="0.76"/><circle cx="538.7" cy="392.4" r="0.50" fill="#eaf0ff" opacity="0.44"/><circle cx="581.6" cy="41.7" r="0.70" fill="#eaf0ff" opacity="0.73"/><circle cx="138.1" cy="858.9" r="0.54" fill="#eaf0ff" opacity="0.36"/><circle cx="295.1" cy="878.8" r="0.72" fill="#eaf0ff" opacity="0.66"/><circle cx="569.8" cy="29.3" r="0.79" fill="#eaf0ff" opacity="0.98"/><circle cx="582.8" cy="797.2" r="0.69" fill="#eaf0ff" opacity="0.73"/><circle cx="553.5" cy="511.4" r="0.79" fill="#eaf0ff" opacity="0.92"/><circle cx="683.4" cy="643.9" r="0.52" fill="#eaf0ff" opacity="0.45"/><circle cx="346.2" cy="858.0" r="0.65" fill="#eaf0ff" opacity="0.77"/><circle cx="100.1" cy="685.2" r="0.71" fill="#eaf0ff" opacity="0.85"/><circle cx="6.5" cy="707.8" r="0.79" fill="#eaf0ff" opacity="0.49"/><circle cx="671.1" cy="30.7" r="0.52" fill="#eaf0ff" opacity="0.38"/><circle cx="843.3" cy="284.5" r="0.60" fill="#eaf0ff" opacity="0.79"/><circle cx="579.7" cy="715.1" r="0.73" fill="#eaf0ff" opacity="0.66"/><circle cx="367.6" cy="824.2" r="0.63" fill="#eaf0ff" opacity="0.94"/><circle cx="546.8" cy="177.9" r="0.72" fill="#eaf0ff" opacity="0.75"/><circle cx="817.2" cy="330.8" r="0.86" fill="#eaf0ff" opacity="0.38"/><circle cx="218.8" cy="12.2" r="0.65" fill="#eaf0ff" opacity="0.65"/><circle cx="277.0" cy="728.0" r="0.85" fill="#eaf0ff" opacity="0.63"/><circle cx="498.8" cy="485.0" r="0.59" fill="#eaf0ff" opacity="0.97"/><circle cx="463.7" cy="436.0" r="0.42" fill="#eaf0ff" opacity="0.61"/><circle cx="495.8" cy="33.7" r="0.68" fill="#eaf0ff" opacity="0.57"/><circle cx="204.2" cy="125.0" r="0.54" fill="#eaf0ff" opacity="0.55"/><circle cx="566.2" cy="527.3" r="0.44" fill="#eaf0ff" opacity="0.60"/><circle cx="703.4" cy="485.3" r="0.50" fill="#eaf0ff" opacity="0.66"/><circle cx="131.1" cy="319.0" r="0.69" fill="#eaf0ff" opacity="0.99"/><circle cx="547.6" cy="465.9" r="0.60" fill="#eaf0ff" opacity="0.60"/><circle cx="544.8" cy="585.4" r="0.65" fill="#eaf0ff" opacity="0.37"/><circle cx="75.1" cy="569.8" r="0.89" fill="#eaf0ff" opacity="0.95"/><circle cx="719.3" cy="443.5" r="0.41" fill="#eaf0ff" opacity="0.52"/><circle cx="44.4" cy="311.8" r="0.82" fill="#eaf0ff" opacity="0.91"/><circle cx="679.6" cy="740.0" r="0.71" fill="#eaf0ff" opacity="0.47"/><circle cx="161.2" cy="562.7" r="0.64" fill="#eaf0ff" opacity="0.68"/><circle cx="297.3" cy="565.7" r="0.79" fill="#eaf0ff" opacity="0.88"/><circle cx="788.7" cy="493.3" r="0.58" fill="#eaf0ff" opacity="0.92"/><circle cx="315.1" cy="324.7" r="0.81" fill="#eaf0ff" opacity="0.72"/><circle cx="198.0" cy="803.5" r="0.61" fill="#eaf0ff" opacity="0.84"/><circle cx="266.1" cy="290.5" r="0.75" fill="#eaf0ff" opacity="0.59"/><circle cx="422.7" cy="303.4" r="0.75" fill="#eaf0ff" opacity="0.80"/><circle cx="65.7" cy="877.9" r="0.55" fill="#eaf0ff" opacity="0.41"/><circle cx="597.9" cy="345.2" r="0.67" fill="#eaf0ff" opacity="0.59"/><circle cx="824.0" cy="671.1" r="0.45" fill="#eaf0ff" opacity="0.56"/><circle cx="157.4" cy="478.4" r="0.43" fill="#eaf0ff" opacity="0.40"/><circle cx="372.2" cy="253.5" r="0.73" fill="#eaf0ff" opacity="0.50"/><circle cx="589.9" cy="495.2" r="0.89" fill="#eaf0ff" opacity="0.87"/><circle cx="438.3" cy="525.0" r="0.72" fill="#eaf0ff" opacity="0.40"/><circle cx="326.0" cy="238.2" r="0.78" fill="#eaf0ff" opacity="0.92"/><circle cx="683.9" cy="801.4" r="0.89" fill="#eaf0ff" opacity="0.90"/><circle cx="396.2" cy="374.7" r="0.51" fill="#eaf0ff" opacity="0.93"/><circle cx="43.5" cy="224.5" r="0.82" fill="#eaf0ff" opacity="0.76"/><circle cx="5.0" cy="576.7" r="0.69" fill="#eaf0ff" opacity="0.38"/><circle cx="40.7" cy="652.3" r="0.44" fill="#eaf0ff" opacity="0.93"/><circle cx="345.4" cy="39.5" r="0.71" fill="#eaf0ff" opacity="0.79"/><circle cx="829.9" cy="65.7" r="0.85" fill="#eaf0ff" opacity="0.77"/><circle cx="282.7" cy="48.2" r="0.80" fill="#eaf0ff" opacity="0.47"/><circle cx="804.5" cy="261.6" r="0.60" fill="#eaf0ff" opacity="0.97"/><circle cx="113.1" cy="698.9" r="0.45" fill="#eaf0ff" opacity="0.71"/><circle cx="148.5" cy="87.5" r="0.50" fill="#eaf0ff" opacity="0.61"/><circle cx="124.1" cy="850.6" r="0.56" fill="#eaf0ff" opacity="0.38"/><circle cx="180.8" cy="309.8" r="0.40" fill="#eaf0ff" opacity="0.76"/><circle cx="875.4" cy="207.6" r="0.79" fill="#eaf0ff" opacity="0.71"/><circle cx="800.9" cy="51.2" r="0.44" fill="#eaf0ff" opacity="0.39"/><circle cx="744.9" cy="595.4" r="0.55" fill="#eaf0ff" opacity="0.58"/><circle cx="345.6" cy="532.6" r="0.64" fill="#eaf0ff" opacity="0.83"/><circle cx="641.0" cy="52.4" r="0.62" fill="#eaf0ff" opacity="0.62"/><circle cx="767.6" cy="633.3" r="0.51" fill="#eaf0ff" opacity="0.97"/><circle cx="818.9" cy="154.3" r="0.89" fill="#eaf0ff" opacity="0.36"/><circle cx="138.5" cy="559.3" r="0.43" fill="#eaf0ff" opacity="0.75"/><circle cx="111.2" cy="306.3" r="0.62" fill="#eaf0ff" opacity="0.53"/><circle cx="84.2" cy="126.9" r="0.54" fill="#eaf0ff" opacity="0.80"/><circle cx="431.8" cy="427.8" r="0.90" fill="#eaf0ff" opacity="0.84"/><circle cx="859.4" cy="106.0" r="0.50" fill="#eaf0ff" opacity="0.70"/><circle cx="534.4" cy="90.8" r="0.58" fill="#eaf0ff" opacity="0.78"/><circle cx="309.9" cy="472.3" r="0.75" fill="#eaf0ff" opacity="0.98"/><circle cx="815.9" cy="677.5" r="0.77" fill="#eaf0ff" opacity="0.56"/><circle cx="716.1" cy="447.8" r="0.57" fill="#eaf0ff" opacity="0.87"/><circle cx="820.8" cy="57.5" r="0.82" fill="#eaf0ff" opacity="0.67"/><circle cx="126.6" cy="378.4" r="0.63" fill="#eaf0ff" opacity="0.50"/><circle cx="880.3" cy="492.7" r="0.42" fill="#eaf0ff" opacity="1.00"/><circle cx="616.1" cy="14.4" r="0.79" fill="#eaf0ff" opacity="0.88"/><circle cx="834.0" cy="809.9" r="0.73" fill="#eaf0ff" opacity="0.37"/><circle cx="416.4" cy="866.6" r="0.68" fill="#eaf0ff" opacity="0.76"/><circle cx="671.9" cy="162.0" r="0.66" fill="#eaf0ff" opacity="0.52"/><circle cx="345.7" cy="92.0" r="0.42" fill="#eaf0ff" opacity="0.61"/><circle cx="571.7" cy="149.6" r="0.55" fill="#eaf0ff" opacity="0.64"/><circle cx="496.0" cy="865.4" r="0.59" fill="#eaf0ff" opacity="0.59"/><circle cx="269.9" cy="345.9" r="0.69" fill="#eaf0ff" opacity="0.64"/><circle cx="107.3" cy="248.4" r="0.68" fill="#eaf0ff" opacity="0.38"/><circle cx="211.4" cy="548.8" r="0.58" fill="#eaf0ff" opacity="0.38"/><circle cx="40.2" cy="78.7" r="0.83" fill="#eaf0ff" opacity="0.47"/><circle cx="666.3" cy="526.5" r="0.77" fill="#eaf0ff" opacity="0.49"/><circle cx="312.6" cy="860.9" r="0.78" fill="#eaf0ff" opacity="0.51"/><circle cx="299.3" cy="244.5" r="0.73" fill="#eaf0ff" opacity="0.35"/><circle cx="896.2" cy="390.7" r="0.55" fill="#eaf0ff" opacity="0.79"/><circle cx="272.6" cy="631.9" r="0.89" fill="#eaf0ff" opacity="0.80"/><circle cx="592.9" cy="240.4" r="0.64" fill="#eaf0ff" opacity="0.60"/><circle cx="456.2" cy="369.0" r="0.88" fill="#eaf0ff" opacity="0.40"/><circle cx="721.4" cy="858.4" r="0.45" fill="#eaf0ff" opacity="0.76"/><circle cx="862.4" cy="115.2" r="0.44" fill="#eaf0ff" opacity="0.73"/><circle cx="600.0" cy="276.4" r="0.41" fill="#eaf0ff" opacity="0.58"/><circle cx="674.4" cy="697.3" r="0.67" fill="#eaf0ff" opacity="0.82"/><circle cx="235.3" cy="862.2" r="0.61" fill="#eaf0ff" opacity="0.78"/><circle cx="721.7" cy="417.6" r="0.77" fill="#eaf0ff" opacity="0.75"/><circle cx="724.2" cy="240.0" r="0.57" fill="#eaf0ff" opacity="0.55"/><circle cx="576.6" cy="339.5" r="0.80" fill="#eaf0ff" opacity="0.80"/><circle cx="607.3" cy="891.0" r="0.76" fill="#eaf0ff" opacity="0.61"/><circle cx="693.3" cy="307.9" r="0.81" fill="#eaf0ff" opacity="0.50"/><circle cx="163.8" cy="611.7" r="0.41" fill="#eaf0ff" opacity="0.58"/><circle cx="360.4" cy="633.1" r="0.44" fill="#eaf0ff" opacity="0.64"/><circle cx="188.8" cy="635.2" r="0.51" fill="#eaf0ff" opacity="0.98"/><circle cx="813.5" cy="582.0" r="0.80" fill="#eaf0ff" opacity="0.55"/><circle cx="122.1" cy="339.9" r="0.82" fill="#eaf0ff" opacity="0.77"/><circle cx="586.7" cy="540.2" r="0.59" fill="#eaf0ff" opacity="1.00"/><circle cx="709.6" cy="789.3" r="0.69" fill="#eaf0ff" opacity="0.80"/><circle cx="763.4" cy="814.1" r="0.86" fill="#eaf0ff" opacity="0.91"/><circle cx="397.5" cy="189.0" r="0.51" fill="#eaf0ff" opacity="0.90"/><circle cx="199.2" cy="520.9" r="0.41" fill="#eaf0ff" opacity="0.95"/><circle cx="764.6" cy="529.1" r="0.55" fill="#eaf0ff" opacity="0.95"/><circle cx="594.6" cy="89.2" r="0.76" fill="#eaf0ff" opacity="0.80"/><circle cx="633.6" cy="500.7" r="0.84" fill="#eaf0ff" opacity="0.53"/><circle cx="318.2" cy="668.7" r="0.72" fill="#eaf0ff" opacity="0.79"/><circle cx="809.1" cy="734.6" r="0.52" fill="#eaf0ff" opacity="0.74"/><circle cx="148.1" cy="285.9" r="0.45" fill="#eaf0ff" opacity="0.46"/><circle cx="236.8" cy="357.5" r="0.73" fill="#eaf0ff" opacity="0.93"/><circle cx="814.2" cy="401.8" r="0.65" fill="#eaf0ff" opacity="0.98"/><circle cx="818.8" cy="477.8" r="0.61" fill="#eaf0ff" opacity="0.37"/><circle cx="424.7" cy="281.9" r="0.66" fill="#eaf0ff" opacity="0.75"/><circle cx="284.4" cy="1.5" r="0.75" fill="#eaf0ff" opacity="0.38"/><circle cx="786.3" cy="795.6" r="0.80" fill="#eaf0ff" opacity="0.78"/><circle cx="7.4" cy="661.3" r="0.41" fill="#eaf0ff" opacity="0.45"/><circle cx="206.5" cy="510.6" r="0.82" fill="#eaf0ff" opacity="0.58"/><circle cx="108.2" cy="13.8" r="0.65" fill="#eaf0ff" opacity="0.77"/><circle cx="303.0" cy="19.7" r="0.68" fill="#eaf0ff" opacity="0.89"/><circle cx="432.0" cy="99.0" r="0.49" fill="#eaf0ff" opacity="0.40"/><circle cx="111.5" cy="487.6" r="0.66" fill="#eaf0ff" opacity="0.86"/><circle cx="720.6" cy="306.9" r="0.65" fill="#eaf0ff" opacity="0.61"/><circle cx="823.3" cy="322.0" r="0.62" fill="#eaf0ff" opacity="0.66"/><circle cx="744.2" cy="670.4" r="0.81" fill="#eaf0ff" opacity="0.55"/><circle cx="769.6" cy="550.1" r="0.46" fill="#eaf0ff" opacity="0.36"/><circle cx="537.3" cy="731.6" r="0.77" fill="#eaf0ff" opacity="0.66"/><circle cx="804.5" cy="315.1" r="0.63" fill="#eaf0ff" opacity="0.47"/><circle cx="489.6" cy="462.4" r="0.50" fill="#eaf0ff" opacity="0.60"/><circle cx="837.6" cy="289.7" r="0.68" fill="#eaf0ff" opacity="0.79"/><circle cx="737.4" cy="799.8" r="0.65" fill="#eaf0ff" opacity="0.95"/><circle cx="319.1" cy="899.9" r="0.81" fill="#eaf0ff" opacity="0.51"/><circle cx="399.3" cy="541.6" r="0.46" fill="#eaf0ff" opacity="0.78"/><circle cx="460.8" cy="254.5" r="0.52" fill="#eaf0ff" opacity="0.69"/><circle cx="205.6" cy="144.1" r="0.81" fill="#eaf0ff" opacity="0.44"/><circle cx="696.6" cy="124.7" r="0.51" fill="#eaf0ff" opacity="0.95"/><circle cx="673.0" cy="288.5" r="0.78" fill="#eaf0ff" opacity="0.55"/><circle cx="381.5" cy="293.0" r="0.68" fill="#eaf0ff" opacity="0.70"/><circle cx="129.4" cy="192.9" r="0.82" fill="#eaf0ff" opacity="0.72"/><circle cx="742.2" cy="317.9" r="0.73" fill="#eaf0ff" opacity="0.44"/><circle cx="37.9" cy="108.0" r="0.42" fill="#eaf0ff" opacity="0.86"/><circle cx="897.7" cy="558.8" r="0.56" fill="#eaf0ff" opacity="0.50"/><circle cx="378.0" cy="735.5" r="0.85" fill="#eaf0ff" opacity="0.88"/><circle cx="757.7" cy="626.6" r="0.41" fill="#eaf0ff" opacity="0.97"/><circle cx="443.4" cy="352.9" r="0.41" fill="#eaf0ff" opacity="0.83"/><circle cx="634.3" cy="689.7" r="0.80" fill="#eaf0ff" opacity="0.83"/><circle cx="274.9" cy="764.3" r="0.90" fill="#eaf0ff" opacity="0.83"/><circle cx="183.1" cy="25.7" r="0.42" fill="#eaf0ff" opacity="0.98"/><circle cx="293.7" cy="196.4" r="0.55" fill="#eaf0ff" opacity="0.45"/><circle cx="239.9" cy="711.4" r="0.87" fill="#eaf0ff" opacity="0.61"/><circle cx="142.3" cy="481.0" r="0.69" fill="#eaf0ff" opacity="0.95"/><circle cx="557.9" cy="138.0" r="0.85" fill="#eaf0ff" opacity="0.65"/><circle cx="874.4" cy="501.0" r="0.77" fill="#eaf0ff" opacity="0.77"/><circle cx="778.6" cy="550.0" r="0.71" fill="#eaf0ff" opacity="0.96"/><circle cx="230.4" cy="113.1" r="0.47" fill="#eaf0ff" opacity="0.99"/><circle cx="548.9" cy="633.9" r="0.69" fill="#eaf0ff" opacity="0.63"/><circle cx="682.5" cy="341.8" r="0.73" fill="#eaf0ff" opacity="0.61"/><circle cx="519.9" cy="568.1" r="0.88" fill="#eaf0ff" opacity="0.77"/><circle cx="677.2" cy="587.1" r="0.46" fill="#eaf0ff" opacity="0.93"/><circle cx="684.1" cy="21.7" r="0.79" fill="#eaf0ff" opacity="0.46"/><circle cx="461.8" cy="546.2" r="0.55" fill="#eaf0ff" opacity="0.83"/><circle cx="294.5" cy="242.4" r="0.65" fill="#eaf0ff" opacity="0.64"/><circle cx="484.4" cy="31.6" r="0.54" fill="#eaf0ff" opacity="0.81"/><circle cx="114.8" cy="226.2" r="0.47" fill="#eaf0ff" opacity="0.84"/><circle cx="397.3" cy="151.0" r="0.86" fill="#eaf0ff" opacity="0.58"/><circle cx="671.7" cy="79.6" r="0.55" fill="#eaf0ff" opacity="0.43"/><circle cx="370.0" cy="137.4" r="0.65" fill="#eaf0ff" opacity="0.59"/><circle cx="125.4" cy="838.8" r="0.87" fill="#eaf0ff" opacity="0.57"/><circle cx="413.4" cy="431.5" r="0.86" fill="#eaf0ff" opacity="0.64"/><circle cx="513.1" cy="618.5" r="0.52" fill="#eaf0ff" opacity="0.74"/><circle cx="106.2" cy="535.9" r="0.52" fill="#eaf0ff" opacity="0.43"/><circle cx="402.7" cy="73.3" r="0.77" fill="#eaf0ff" opacity="0.59"/><circle cx="567.6" cy="804.3" r="0.46" fill="#eaf0ff" opacity="0.85"/><circle cx="255.0" cy="446.4" r="0.62" fill="#eaf0ff" opacity="0.47"/><circle cx="440.7" cy="868.3" r="0.55" fill="#eaf0ff" opacity="0.81"/><circle cx="523.8" cy="69.1" r="0.85" fill="#eaf0ff" opacity="0.77"/><circle cx="562.8" cy="397.1" r="0.45" fill="#eaf0ff" opacity="0.76"/><circle cx="690.7" cy="128.4" r="0.41" fill="#eaf0ff" opacity="0.38"/><circle cx="587.5" cy="109.3" r="0.69" fill="#eaf0ff" opacity="0.90"/><circle cx="362.1" cy="669.8" r="0.47" fill="#eaf0ff" opacity="0.61"/><circle cx="898.9" cy="521.2" r="0.73" fill="#eaf0ff" opacity="0.86"/><circle cx="36.8" cy="861.5" r="0.80" fill="#eaf0ff" opacity="0.85"/><circle cx="388.9" cy="731.5" r="0.64" fill="#eaf0ff" opacity="0.93"/><circle cx="90.2" cy="2.2" r="0.47" fill="#eaf0ff" opacity="0.51"/><circle cx="788.9" cy="403.6" r="0.61" fill="#eaf0ff" opacity="0.68"/><circle cx="356.7" cy="850.1" r="0.55" fill="#eaf0ff" opacity="0.82"/><circle cx="636.6" cy="438.9" r="0.73" fill="#eaf0ff" opacity="0.69"/><circle cx="80.7" cy="779.4" r="0.77" fill="#eaf0ff" opacity="0.92"/><circle cx="883.5" cy="100.3" r="0.63" fill="#eaf0ff" opacity="0.39"/><circle cx="444.4" cy="71.9" r="0.87" fill="#eaf0ff" opacity="0.97"/><circle cx="622.6" cy="478.0" r="0.59" fill="#eaf0ff" opacity="0.67"/><circle cx="470.1" cy="439.6" r="0.77" fill="#eaf0ff" opacity="0.77"/><circle cx="838.5" cy="643.9" r="0.59" fill="#eaf0ff" opacity="0.44"/><circle cx="422.2" cy="26.8" r="0.60" fill="#eaf0ff" opacity="0.59"/><circle cx="133.5" cy="365.6" r="0.50" fill="#eaf0ff" opacity="0.79"/><circle cx="289.5" cy="492.9" r="0.87" fill="#eaf0ff" opacity="0.78"/><circle cx="692.3" cy="316.1" r="0.88" fill="#eaf0ff" opacity="0.86"/><circle cx="402.9" cy="373.4" r="0.80" fill="#eaf0ff" opacity="0.77"/><circle cx="690.9" cy="587.3" r="0.54" fill="#eaf0ff" opacity="0.78"/><circle cx="275.2" cy="236.7" r="0.62" fill="#eaf0ff" opacity="0.92"/><circle cx="886.3" cy="768.4" r="0.50" fill="#eaf0ff" opacity="0.62"/><circle cx="577.1" cy="785.0" r="0.64" fill="#eaf0ff" opacity="0.50"/><circle cx="626.3" cy="391.8" r="0.75" fill="#eaf0ff" opacity="0.88"/><circle cx="730.3" cy="707.5" r="0.48" fill="#eaf0ff" opacity="0.94"/><circle cx="658.2" cy="328.2" r="0.55" fill="#eaf0ff" opacity="0.97"/><circle cx="201.4" cy="258.9" r="0.68" fill="#eaf0ff" opacity="0.56"/><circle cx="84.8" cy="485.2" r="0.46" fill="#eaf0ff" opacity="0.40"/><circle cx="228.5" cy="519.0" r="0.85" fill="#eaf0ff" opacity="0.82"/><circle cx="178.6" cy="73.0" r="0.62" fill="#eaf0ff" opacity="0.82"/><circle cx="257.4" cy="277.8" r="0.85" fill="#eaf0ff" opacity="0.35"/><circle cx="57.6" cy="331.1" r="0.70" fill="#eaf0ff" opacity="0.76"/><circle cx="294.0" cy="33.0" r="0.44" fill="#eaf0ff" opacity="0.46"/><circle cx="692.6" cy="63.6" r="0.90" fill="#eaf0ff" opacity="0.42"/><circle cx="352.3" cy="337.1" r="0.69" fill="#eaf0ff" opacity="0.61"/><circle cx="320.8" cy="764.4" r="0.63" fill="#eaf0ff" opacity="0.78"/><circle cx="617.2" cy="374.3" r="0.72" fill="#eaf0ff" opacity="0.75"/><circle cx="818.7" cy="690.3" r="0.73" fill="#eaf0ff" opacity="0.75"/><circle cx="22.8" cy="79.5" r="0.82" fill="#eaf0ff" opacity="0.76"/><circle cx="29.5" cy="46.7" r="0.83" fill="#eaf0ff" opacity="0.99"/><circle cx="720.5" cy="861.6" r="0.52" fill="#eaf0ff" opacity="0.74"/><circle cx="324.2" cy="752.8" r="0.63" fill="#eaf0ff" opacity="0.86"/><circle cx="78.5" cy="525.8" r="0.74" fill="#eaf0ff" opacity="0.99"/><circle cx="563.3" cy="158.6" r="0.77" fill="#eaf0ff" opacity="0.78"/><circle cx="448.8" cy="341.8" r="0.77" fill="#eaf0ff" opacity="0.46"/><circle cx="69.0" cy="554.2" r="0.46" fill="#eaf0ff" opacity="0.92"/><circle cx="498.1" cy="241.1" r="0.79" fill="#eaf0ff" opacity="0.46"/><circle cx="438.8" cy="292.3" r="0.48" fill="#eaf0ff" opacity="0.39"/><circle cx="382.5" cy="586.5" r="0.55" fill="#eaf0ff" opacity="0.60"/><circle cx="633.3" cy="716.9" r="0.68" fill="#eaf0ff" opacity="0.95"/><circle cx="658.5" cy="327.8" r="0.88" fill="#eaf0ff" opacity="0.71"/><circle cx="741.8" cy="139.5" r="0.55" fill="#eaf0ff" opacity="0.74"/><circle cx="402.1" cy="864.4" r="0.65" fill="#eaf0ff" opacity="0.82"/><circle cx="618.6" cy="240.3" r="0.65" fill="#eaf0ff" opacity="0.73"/><circle cx="52.7" cy="30.8" r="0.58" fill="#eaf0ff" opacity="0.87"/><circle cx="185.5" cy="121.5" r="0.86" fill="#eaf0ff" opacity="0.64"/><circle cx="271.9" cy="461.6" r="0.83" fill="#eaf0ff" opacity="0.56"/><circle cx="87.1" cy="488.0" r="0.40" fill="#eaf0ff" opacity="0.66"/><circle cx="157.8" cy="172.6" r="0.78" fill="#eaf0ff" opacity="0.63"/><circle cx="239.6" cy="581.1" r="0.57" fill="#eaf0ff" opacity="0.79"/><circle cx="254.8" cy="195.2" r="0.81" fill="#eaf0ff" opacity="0.73"/><circle cx="621.6" cy="86.9" r="0.74" fill="#eaf0ff" opacity="0.92"/><circle cx="564.3" cy="433.5" r="0.57" fill="#eaf0ff" opacity="0.70"/><circle cx="563.7" cy="36.7" r="0.45" fill="#eaf0ff" opacity="0.90"/><circle cx="243.7" cy="691.4" r="0.45" fill="#eaf0ff" opacity="0.84"/><circle cx="639.9" cy="416.9" r="0.77" fill="#eaf0ff" opacity="0.91"/><circle cx="667.7" cy="212.8" r="0.64" fill="#eaf0ff" opacity="0.90"/><circle cx="285.0" cy="231.7" r="0.61" fill="#eaf0ff" opacity="0.54"/><circle cx="765.4" cy="759.3" r="0.44" fill="#eaf0ff" opacity="0.71"/><circle cx="153.4" cy="14.2" r="0.53" fill="#eaf0ff" opacity="0.67"/><circle cx="843.8" cy="21.6" r="0.86" fill="#eaf0ff" opacity="0.47"/><circle cx="777.1" cy="568.6" r="0.52" fill="#eaf0ff" opacity="0.87"/><circle cx="807.3" cy="79.1" r="0.66" fill="#eaf0ff" opacity="0.61"/><circle cx="330.6" cy="722.6" r="0.52" fill="#eaf0ff" opacity="0.50"/><circle cx="307.8" cy="896.2" r="0.61" fill="#eaf0ff" opacity="0.71"/><circle cx="568.5" cy="502.4" r="0.55" fill="#eaf0ff" opacity="0.73"/><circle cx="39.3" cy="287.1" r="0.52" fill="#eaf0ff" opacity="0.53"/><circle cx="475.9" cy="748.3" r="0.50" fill="#eaf0ff" opacity="0.70"/><circle cx="839.2" cy="846.7" r="0.67" fill="#eaf0ff" opacity="0.75"/><circle cx="640.9" cy="817.2" r="0.73" fill="#eaf0ff" opacity="0.99"/><circle cx="97.2" cy="744.5" r="0.49" fill="#eaf0ff" opacity="0.75"/><circle cx="451.4" cy="581.9" r="0.71" fill="#eaf0ff" opacity="0.96"/><circle cx="289.2" cy="87.0" r="0.57" fill="#eaf0ff" opacity="0.48"/><circle cx="467.7" cy="5.0" r="0.46" fill="#eaf0ff" opacity="0.63"/><circle cx="340.2" cy="491.7" r="0.70" fill="#eaf0ff" opacity="0.91"/><circle cx="568.1" cy="66.8" r="0.78" fill="#eaf0ff" opacity="0.99"/><circle cx="428.1" cy="42.2" r="0.68" fill="#eaf0ff" opacity="0.45"/><circle cx="855.9" cy="209.7" r="0.72" fill="#eaf0ff" opacity="0.90"/><circle cx="892.7" cy="305.3" r="0.42" fill="#eaf0ff" opacity="0.55"/><circle cx="680.1" cy="20.1" r="0.74" fill="#eaf0ff" opacity="0.69"/><circle cx="752.3" cy="380.0" r="0.41" fill="#eaf0ff" opacity="0.70"/><circle cx="392.0" cy="471.4" r="0.79" fill="#eaf0ff" opacity="0.37"/><circle cx="178.2" cy="414.5" r="0.59" fill="#eaf0ff" opacity="0.45"/><circle cx="736.0" cy="559.2" r="0.60" fill="#eaf0ff" opacity="0.60"/><circle cx="364.2" cy="757.4" r="0.53" fill="#eaf0ff" opacity="0.97"/><circle cx="780.0" cy="572.0" r="0.49" fill="#eaf0ff" opacity="0.37"/><circle cx="9.8" cy="581.6" r="0.77" fill="#eaf0ff" opacity="0.79"/><circle cx="584.8" cy="58.7" r="0.56" fill="#eaf0ff" opacity="0.86"/><circle cx="161.6" cy="146.5" r="0.44" fill="#eaf0ff" opacity="0.54"/><circle cx="311.3" cy="353.7" r="0.65" fill="#eaf0ff" opacity="0.51"/><circle cx="650.9" cy="649.0" r="0.89" fill="#eaf0ff" opacity="0.71"/><circle cx="452.5" cy="216.4" r="0.52" fill="#eaf0ff" opacity="0.56"/><circle cx="539.0" cy="114.7" r="0.77" fill="#eaf0ff" opacity="0.85"/><circle cx="587.0" cy="726.5" r="0.71" fill="#eaf0ff" opacity="0.39"/><circle cx="271.9" cy="192.3" r="0.62" fill="#eaf0ff" opacity="0.90"/><circle cx="631.3" cy="366.6" r="0.57" fill="#eaf0ff" opacity="0.49"/><circle cx="441.9" cy="294.7" r="0.46" fill="#eaf0ff" opacity="0.97"/><circle cx="836.3" cy="287.2" r="0.67" fill="#eaf0ff" opacity="0.80"/><circle cx="36.7" cy="431.5" r="0.76" fill="#eaf0ff" opacity="0.91"/><circle cx="702.0" cy="46.5" r="0.75" fill="#eaf0ff" opacity="0.43"/><circle cx="585.8" cy="510.1" r="0.66" fill="#eaf0ff" opacity="0.88"/><circle cx="285.9" cy="695.6" r="0.42" fill="#eaf0ff" opacity="0.63"/><circle cx="157.0" cy="160.1" r="0.50" fill="#eaf0ff" opacity="0.61"/><circle cx="721.5" cy="61.2" r="0.55" fill="#eaf0ff" opacity="0.90"/><circle cx="423.2" cy="770.4" r="0.73" fill="#eaf0ff" opacity="0.86"/><circle cx="810.2" cy="19.6" r="0.79" fill="#eaf0ff" opacity="0.71"/><circle cx="23.3" cy="798.3" r="0.86" fill="#eaf0ff" opacity="0.69"/><circle cx="486.1" cy="508.1" r="0.53" fill="#eaf0ff" opacity="0.77"/><circle cx="493.0" cy="117.8" r="0.55" fill="#eaf0ff" opacity="0.62"/><circle cx="296.8" cy="410.5" r="0.48" fill="#eaf0ff" opacity="0.73"/><circle cx="182.4" cy="145.2" r="0.81" fill="#eaf0ff" opacity="0.90"/><circle cx="497.2" cy="304.5" r="0.41" fill="#eaf0ff" opacity="0.92"/><circle cx="242.2" cy="614.3" r="0.60" fill="#eaf0ff" opacity="0.58"/><circle cx="839.4" cy="792.3" r="0.65" fill="#eaf0ff" opacity="0.62"/><circle cx="693.2" cy="380.2" r="0.49" fill="#eaf0ff" opacity="0.39"/><circle cx="730.1" cy="337.0" r="0.74" fill="#eaf0ff" opacity="0.68"/><circle cx="637.8" cy="137.9" r="0.53" fill="#eaf0ff" opacity="0.92"/><circle cx="856.9" cy="637.5" r="0.42" fill="#eaf0ff" opacity="0.45"/><circle cx="184.5" cy="897.2" r="0.43" fill="#eaf0ff" opacity="0.73"/><circle cx="436.6" cy="447.2" r="0.57" fill="#eaf0ff" opacity="0.40"/><circle cx="597.5" cy="638.2" r="0.49" fill="#eaf0ff" opacity="0.82"/><circle cx="141.7" cy="35.5" r="0.60" fill="#eaf0ff" opacity="0.61"/><circle cx="168.8" cy="633.9" r="0.59" fill="#eaf0ff" opacity="0.48"/><circle cx="32.1" cy="212.6" r="0.78" fill="#eaf0ff" opacity="0.53"/><circle cx="524.7" cy="223.2" r="0.70" fill="#eaf0ff" opacity="0.81"/><circle cx="536.0" cy="818.7" r="0.77" fill="#eaf0ff" opacity="0.54"/><circle cx="778.3" cy="151.5" r="0.64" fill="#eaf0ff" opacity="0.38"/><circle cx="700.0" cy="669.3" r="0.56" fill="#eaf0ff" opacity="0.79"/><circle cx="453.7" cy="204.2" r="0.70" fill="#eaf0ff" opacity="0.84"/><circle cx="622.5" cy="29.8" r="0.87" fill="#eaf0ff" opacity="0.80"/><circle cx="860.8" cy="661.9" r="0.83" fill="#eaf0ff" opacity="0.68"/><circle cx="427.7" cy="166.5" r="0.73" fill="#eaf0ff" opacity="0.50"/><circle cx="15.1" cy="89.4" r="0.51" fill="#eaf0ff" opacity="0.81"/><circle cx="830.6" cy="199.2" r="0.50" fill="#eaf0ff" opacity="0.62"/><circle cx="794.2" cy="512.3" r="0.68" fill="#eaf0ff" opacity="0.79"/><circle cx="18.7" cy="452.7" r="0.69" fill="#eaf0ff" opacity="0.53"/><circle cx="543.2" cy="555.0" r="0.51" fill="#eaf0ff" opacity="0.43"/><circle cx="650.7" cy="236.1" r="0.40" fill="#eaf0ff" opacity="0.97"/><circle cx="586.1" cy="734.8" r="0.44" fill="#eaf0ff" opacity="0.67"/><circle cx="796.9" cy="739.9" r="0.62" fill="#eaf0ff" opacity="0.64"/><circle cx="155.0" cy="736.8" r="0.64" fill="#eaf0ff" opacity="0.62"/><circle cx="106.5" cy="743.5" r="0.62" fill="#eaf0ff" opacity="0.86"/><circle cx="91.0" cy="364.9" r="0.41" fill="#eaf0ff" opacity="0.41"/><circle cx="172.3" cy="559.6" r="0.83" fill="#eaf0ff" opacity="0.99"/><circle cx="367.0" cy="747.0" r="0.43" fill="#eaf0ff" opacity="0.53"/><circle cx="142.1" cy="407.0" r="0.65" fill="#eaf0ff" opacity="0.49"/><circle cx="474.9" cy="841.3" r="0.72" fill="#eaf0ff" opacity="0.65"/><circle cx="23.8" cy="341.7" r="0.47" fill="#eaf0ff" opacity="0.94"/><circle cx="215.7" cy="605.3" r="0.68" fill="#eaf0ff" opacity="0.83"/><circle cx="282.4" cy="604.1" r="0.87" fill="#eaf0ff" opacity="0.44"/><circle cx="686.2" cy="326.1" r="0.68" fill="#eaf0ff" opacity="0.41"/><circle cx="495.2" cy="444.4" r="0.70" fill="#eaf0ff" opacity="0.65"/><circle cx="304.9" cy="595.2" r="0.45" fill="#eaf0ff" opacity="0.39"/><circle cx="66.5" cy="669.5" r="0.40" fill="#eaf0ff" opacity="0.91"/><circle cx="106.6" cy="652.8" r="0.78" fill="#eaf0ff" opacity="0.98"/><circle cx="590.2" cy="22.9" r="0.45" fill="#eaf0ff" opacity="0.36"/><circle cx="723.1" cy="877.4" r="0.66" fill="#eaf0ff" opacity="0.56"/><circle cx="325.9" cy="215.5" r="0.50" fill="#eaf0ff" opacity="0.89"/><circle cx="580.1" cy="728.9" r="0.44" fill="#eaf0ff" opacity="0.56"/><circle cx="761.9" cy="18.2" r="0.52" fill="#eaf0ff" opacity="0.40"/><circle cx="380.2" cy="237.9" r="0.52" fill="#eaf0ff" opacity="0.94"/><circle cx="807.2" cy="315.3" r="0.65" fill="#eaf0ff" opacity="0.69"/><circle cx="315.6" cy="625.5" r="0.88" fill="#eaf0ff" opacity="0.79"/><circle cx="406.6" cy="404.8" r="0.45" fill="#eaf0ff" opacity="0.87"/><circle cx="584.0" cy="100.0" r="0.45" fill="#eaf0ff" opacity="0.92"/></svg>